<svg xmlns="http://www.w3.org/2000/svg" viewBox="0 0 119 118"><defs><style>.a,.d{fill:none;}.a{stroke:#6772e5;stroke-width:6px;}.b{fill:#90bbf8;}.c{stroke:none;}</style></defs><g transform="translate(-86 -96)"><g class="a" transform="translate(135 128)"><circle class="c" cx="17" cy="17" r="17"/><circle class="d" cx="17" cy="17" r="14"/></g><g class="a" transform="translate(124 192)"><circle class="c" cx="11" cy="11" r="11"/><circle class="d" cx="11" cy="11" r="8"/></g><line class="a" y1="36" x2="10" transform="translate(137.5 159.5)"/><g class="a" transform="translate(86 155)"><circle class="c" cx="11" cy="11" r="11"/><circle class="d" cx="11" cy="11" r="8"/></g><line class="a" y1="13" x2="35" transform="translate(103.5 149.5)"/><g class="a" transform="translate(97 96)"><circle class="c" cx="11" cy="11" r="11"/><circle class="d" cx="11" cy="11" r="8"/></g><line class="a" x2="27" y2="24" transform="translate(114.5 111.5)"/><g class="a" transform="translate(178 96)"><circle class="c" cx="11" cy="11" r="11"/><circle class="d" cx="11" cy="11" r="8"/></g><line class="a" y1="20" x2="22" transform="translate(161.5 113.5)"/><g class="a" transform="translate(183 159)"><circle class="c" cx="11" cy="11" r="11"/><circle class="d" cx="11" cy="11" r="8"/></g><line class="a" x2="22" y2="14" transform="translate(164.5 152.5)"/><circle class="b" cx="3" cy="3" r="3" transform="translate(102 122)"/><circle class="b" cx="3" cy="3" r="3" transform="translate(109 178)"/><circle class="b" cx="3" cy="3" r="3" transform="translate(118 186)"/><circle class="b" cx="3" cy="3" r="3" transform="translate(148 191)"/><circle class="b" cx="3" cy="3" r="3" transform="translate(157 186)"/><circle class="b" cx="3" cy="3" r="3" transform="translate(166 181)"/><circle class="b" cx="3" cy="3" r="3" transform="translate(175 177)"/><circle class="b" cx="3" cy="3" r="3" transform="translate(189 150)"/><circle class="b" cx="3" cy="3" r="3" transform="translate(188 141)"/><circle class="b" cx="3" cy="3" r="3" transform="translate(188 131)"/><circle class="b" cx="3" cy="3" r="3" transform="translate(187 121)"/><circle class="b" cx="3" cy="3" r="3" transform="translate(167 104)"/><circle class="b" cx="3" cy="3" r="3" transform="translate(156 104)"/><circle class="b" cx="3" cy="3" r="3" transform="translate(146 104)"/><circle class="b" cx="3" cy="3" r="3" transform="translate(135 104)"/><circle class="b" cx="3" cy="3" r="3" transform="translate(124 104)"/><circle class="b" cx="3" cy="3" r="3" transform="translate(100 133)"/><circle class="b" cx="3" cy="3" r="3" transform="translate(98 144)"/></g></svg>